<svg xmlns="http://www.w3.org/2000/svg" viewBox="0 0 298.38 257.89"><defs><clipPath id="clipPath1608"><path d="M15.875-5.292h179.92v158.75H15.875z" style="fill:none;stroke-width:.32892px;stroke:#000"/></clipPath><clipPath id="clipPath1439"><path d="m1281.5 132.35-9.967 5.754v11.59l10.001 5.773 9.927-5.731v-11.69z" style="fill:none;stroke-width:.26458px;stroke:#000"/></clipPath><clipPath id="clipPath1444"><path d="m1214 110.16-9.84 5.711v11.432l9.861 5.693 9.426-5.442v5.186l19.586 11.308 9.762-5.636v-10.819l9.388 5.42 10.005-5.777v-11.543l-4.55-2.626 4.42-2.551v-11.5l-9.875-5.701-9.78 5.646v5.767l-9.486-5.476-19.52 11.27v5.072z" style="fill:none;stroke-width:.26458px;stroke:#000"/></clipPath><style>.cls-1{fill:#ed1944}.cls-2{fill:#4e4540}.fil0{fill-rule:nonzero}.fil11{fill:#901e78}.fil10{fill:#009a46}.fil9{fill:#d36622}.fil2{fill-rule:nonzero}.fil12{fill:#1f1a17;fill-opacity:.25098}.fil13,.fil14{fill:#1f1a17;fill-opacity:.290196}.fil14{fill-opacity:.388235}.fil1{fill-rule:nonzero}.str1{stroke:#09098f;stroke-width:63}.str0{stroke:#373435;stroke-width:105.83}.fil7{fill:none}.fil2{fill:#373435}.fil3,.fil8{fill:#1e87f7}.fil0{fill:#ebebeb}.fil1{fill:#f7941e}.fil4,.fil5,.fil6{fill:#373435;fill-rule:nonzero}.fil4,.fil5{fill:#1e87f7}.fil5{fill:#f7941e}</style></defs><g transform="translate(729.13 244.47) scale(2.4075)"><path d="M-217.86-101.55c-5.551.058-12.932 2.81-21.925 10.94-3.942 3.358-20.182.218-21.771-.475 0 0-31.486-4.646-37.474 24.053C-312.026-29.545-268.284.623-253.012-.745l.256-.01-.013.016c11.625.322 25.243 7.285 32.108 6.195 9.197-1.46 16.35-5.256 19.27-20.731 1.753-8.614 12.119-8.614 17.082-14.307 4.964-5.694 9.49-12.556-2.628-34.017-6.132-11.242-18.395-11.68-18.979-29.93-.169-3.122-4.339-8.1-11.946-8.02z" style="fill:#caeda5"/><path d="M-298.89-38.924c.183.515.375 1.026.575 1.533h118.6a15.4 15.4 0 0 0 .177-.744v-.006l.007-.045c.05-.241.096-.486.135-.738z" style="fill:#a8e169;paint-order:stroke fill markers"/><path d="M-252.34-25.493c-13.462 1.622-23.668 2.779-13.723 10.804 5.84 4.818 3.212 6.278 13.431 8.468 10.22 2.19 7.446-.146 21.023 2.336 13.577 2.482 21.753-.876 20.585-4.964-1.168-4.088 2.628-9.344 5.548-12.702 2.92-3.358 14.599-4.234 12.41-8.76-2.19-4.526-38.981-3.066-43.798-.876-4.818 2.19-15.475 5.694-15.475 5.694z" style="fill:#a8e169"/><path d="M154.86 73.366a9.122 9.122 0 0 1 2.188.134c3.9 1.576-3.543 2.453-7.473 7.5-.652 1.118-1.18 2.092-1.561 2.907a35.65 35.65 0 0 1-1.988.128c.38-2.01 1.772-7.645 5.84-9.824a7.26 7.26 0 0 1 2.994-.845zM135.56 74.016c-.68.002-1.404.09-2.174.281-3.786 1.835 3.7 2.209 7.96 6.98.726 1.072 1.32 2.008 1.754 2.796.57.016 1.235.015 1.992-.007-.514-1.98-2.283-7.508-6.488-9.408a7.262 7.262 0 0 0-3.044-.642z" style="fill:#a8e169" transform="translate(-358.35 -139.71) scale(1.1036)"/><path d="M132.77 74.653c-2.16 1.55 4.606 2.178 8.577 6.625.725 1.071 1.319 2.007 1.754 2.795.216.006.443.009.686.01-1.129-3.417-7.581-7.299-9.62-8.221-1.243-.563-1.452-.965-1.397-1.209z" style="fill:#85d52d" transform="translate(-358.35 -139.71) scale(1.1036)"/><path d="M133.8 77.121c-1.581.002-3.242.516-4.901 1.828-2.69 3.235 4.282.483 10.133 3.068 1.179.722 2.167 1.369 2.906 1.932.614.048 1.361.08 2.239.082a1.34 1.34 0 0 0-.093-.401s-4.638-6.517-10.284-6.509z" style="fill:#a8e169" transform="translate(-358.35 -139.71) scale(1.1036)"/><path d="M128.66 79.249c-1.999 2.76 4.707.268 10.366 2.768 1.179.723 2.167 1.37 2.905 1.933.29.022.6.042.948.056-2.376-2.62-4.536-3.689-6.463-4.072-2.103-.419-3.929-.028-5.457.03-2.22.085-2.378-.428-2.3-.715z" style="fill:#85d52d" transform="translate(-358.35 -139.71) scale(1.1036)"/><path d="M133.88 77.984c-2.376.021-3.945 1.036-3.945 1.036a.17.17 0 1 0 .185.285s1.69-1.097 4.23-.974c2.406.117 5.577 1.33 8.796 5.683.141.005.278.01.428.013-2.457-3.397-4.928-5.003-7.078-5.657a8.762 8.762 0 0 0-2.616-.386zM153.49 74.611a.169.169 0 0 1 .021.336s-.28.046-.753.255c-.472.21-1.123.581-1.828 1.23-1.343 1.236-2.886 3.482-3.754 7.542-.115.008-.228.016-.35.023.877-4.173 2.467-6.516 3.876-7.812.734-.676 1.416-1.07 1.919-1.293.502-.223.836-.278.836-.278a.169.169 0 0 1 .033-.003z" style="color-rendering:auto;color:#000;dominant-baseline:auto;fill:#73ba25;font-feature-settings:normal;font-variant-alternates:normal;font-variant-caps:normal;font-variant-ligatures:normal;font-variant-numeric:normal;font-variant-position:normal;image-rendering:auto;isolation:auto;mix-blend-mode:normal;shape-padding:0;shape-rendering:auto;solid-color:#000;text-decoration-color:#000;text-decoration-line:none;text-decoration-style:solid;text-indent:0;text-orientation:mixed;text-transform:none;white-space:normal" transform="translate(-358.35 -139.71) scale(1.1036)"/><path d="M157.69 73.814c2.26 1.4-4.45 2.483-8.112 7.186-.652 1.118-1.181 2.092-1.562 2.907-.215.02-.441.039-.684.057.897-3.486 7.073-7.792 9.045-8.85 1.203-.645 1.384-1.06 1.313-1.3z" style="fill:#85d52d" transform="translate(-358.35 -139.71) scale(1.1036)"/><path d="M156.91 76.321c1.578-.104 3.269.297 5.013 1.494 2.902 3.046-4.24.77-9.904 3.742-1.127.8-2.07 1.512-2.77 2.124-.609.089-1.352.172-2.227.232a1.34 1.34 0 0 1 .065-.406s4.189-6.814 9.823-7.186z" style="fill:#a8e169" transform="translate(-358.35 -139.71) scale(1.1036)"/><path d="M162.18 78.098c2.18 2.62-4.678.584-10.156 3.46-1.128.8-2.07 1.51-2.769 2.123-.287.042-.596.082-.942.12 2.195-2.774 4.278-3.986 6.175-4.498 2.07-.56 3.918-.292 5.447-.337 2.22-.064 2.344-.586 2.245-.868z" style="fill:#85d52d" transform="translate(-358.35 -139.71) scale(1.1036)"/><path d="M156.88 77.188c2.372-.139 4.006.769 4.006.769a.17.17 0 1 1-.166.296s-1.759-.981-4.286-.687c-2.393.278-5.475 1.701-8.393 6.262-.141.013-.277.029-.426.042 2.223-3.555 4.58-5.324 6.68-6.121a8.76 8.76 0 0 1 2.585-.561zM137.01 75.166a.169.169 0 0 0 0 .337s.284.027.77.204c.485.177 1.159.504 1.907 1.104 1.423 1.143 3.113 3.28 4.252 7.272h.35c-1.155-4.105-2.899-6.336-4.391-7.534-.779-.625-1.486-.972-2.002-1.16-.516-.19-.854-.221-.854-.221a.169.169 0 0 0-.032-.002z" style="color-rendering:auto;color:#000;dominant-baseline:auto;fill:#73ba25;font-feature-settings:normal;font-variant-alternates:normal;font-variant-caps:normal;font-variant-ligatures:normal;font-variant-numeric:normal;font-variant-position:normal;image-rendering:auto;isolation:auto;mix-blend-mode:normal;shape-padding:0;shape-rendering:auto;solid-color:#000;text-decoration-color:#000;text-decoration-line:none;text-decoration-style:solid;text-indent:0;text-orientation:mixed;text-transform:none;white-space:normal" transform="translate(-358.35 -139.71) scale(1.1036)"/><path d="M145.31 69.079a2.303 2.303 0 0 0-.908.197c-3.07 4.05-1.342 11.701-.405 14.956.767-.01 1.743-.068 2.944-.19 1.138-4.171 1.882-14.922-1.631-14.963z" style="fill:#a8e169" transform="translate(-358.35 -139.71) scale(1.1036)"/><path d="M147.86 77.232c-.268 1.596-.897 1.515-1.587 2.253-.933.999-.446 1.923-1.477 2.415-1.032.491-1.828-2.411-1.828-2.411l-.012.007c.282 1.901.709 3.585 1.04 4.737.767-.011 1.74-.068 2.938-.19.443-1.617.828-4.211.926-6.811z" style="fill:#85d52d" transform="translate(-358.35 -139.71) scale(1.1036)"/><path d="M145.24 71.471a.22.22 0 0 0-.214.222l-.028 12.503c.142-.007.287-.015.44-.025l.027-12.475a.22.22 0 0 0-.225-.225z" style="color-rendering:auto;color:#000;dominant-baseline:auto;fill:#73ba25;font-feature-settings:normal;font-variant-alternates:normal;font-variant-caps:normal;font-variant-ligatures:normal;font-variant-numeric:normal;font-variant-position:normal;image-rendering:auto;isolation:auto;mix-blend-mode:normal;shape-padding:0;shape-rendering:auto;solid-color:#000;text-decoration-color:#000;text-decoration-line:none;text-decoration-style:solid;text-indent:0;text-orientation:mixed;text-transform:none;white-space:normal" transform="translate(-358.35 -139.71) scale(1.1036)"/><path d="m138.63 83.023 2.653 12.246h8.721l2.913-12.246h-8.164z" style="fill:#85d52d" transform="translate(-358.35 -139.71) scale(1.1036)"/><path d="m142.6 83.023 1.968 12.246h-3.291l-2.681-12.246z" style="fill:#69aa22" transform="translate(-358.35 -139.71) scale(1.1036)"/><path d="M-274.39-69.842h10.537v8.108h-10.661z" style="fill:#f4f5f6"/><path d="M-273.27-68.705h8.487v5.706h-8.595z" style="fill:#a8e169"/><path d="m-266.59-67.957-1.877 3.154-2.056-2.056-2.84 3.86h8.576v-3.286c-.72-.717-1.803-1.672-1.803-1.672z" style="fill:#69aa22"/><path d="m-274.43-69.842-.126 8.108h10.834v-8.108zm.525.532h9.672v7.193h-9.786z" style="fill:#4a7718"/><path d="M154.86 73.366a9.122 9.122 0 0 1 2.188.134c3.9 1.576-3.543 2.453-7.473 7.5-.652 1.118-1.18 2.092-1.561 2.907a35.65 35.65 0 0 1-1.988.128c.38-2.01 1.772-7.645 5.84-9.824a7.26 7.26 0 0 1 2.994-.845zM135.56 74.016c-.68.002-1.404.09-2.174.281-3.786 1.835 3.7 2.209 7.96 6.98.726 1.072 1.32 2.008 1.754 2.796.57.016 1.235.015 1.992-.007-.514-1.98-2.283-7.508-6.488-9.408a7.262 7.262 0 0 0-3.044-.642z" style="fill:#a8e169" transform="translate(-429.3 -139.71) scale(1.1036)"/><path d="M132.77 74.653c-2.16 1.55 4.606 2.178 8.577 6.625.725 1.071 1.319 2.007 1.754 2.795.216.006.443.009.686.01-1.129-3.417-7.581-7.299-9.62-8.221-1.243-.563-1.452-.965-1.397-1.209z" style="fill:#85d52d" transform="translate(-429.3 -139.71) scale(1.1036)"/><path d="M133.8 77.121c-1.581.002-3.242.516-4.901 1.828-2.69 3.235 4.282.483 10.133 3.068 1.179.722 2.167 1.369 2.906 1.932.614.048 1.361.08 2.239.082a1.34 1.34 0 0 0-.093-.401s-4.638-6.517-10.284-6.509z" style="fill:#a8e169" transform="translate(-429.3 -139.71) scale(1.1036)"/><path d="M128.66 79.249c-1.999 2.76 4.707.268 10.366 2.768 1.179.723 2.167 1.37 2.905 1.933.29.022.6.042.948.056-2.376-2.62-4.536-3.689-6.463-4.072-2.103-.419-3.929-.028-5.457.03-2.22.085-2.378-.428-2.3-.715z" style="fill:#85d52d" transform="translate(-429.3 -139.71) scale(1.1036)"/><path d="M133.88 77.984c-2.376.021-3.945 1.036-3.945 1.036a.17.17 0 1 0 .185.285s1.69-1.097 4.23-.974c2.406.117 5.577 1.33 8.796 5.683.141.005.278.01.428.013-2.457-3.397-4.928-5.003-7.078-5.657a8.762 8.762 0 0 0-2.616-.386zM153.49 74.611a.169.169 0 0 1 .021.336s-.28.046-.753.255c-.472.21-1.123.581-1.828 1.23-1.343 1.236-2.886 3.482-3.754 7.542-.115.008-.228.016-.35.023.877-4.173 2.467-6.516 3.876-7.812.734-.676 1.416-1.07 1.919-1.293.502-.223.836-.278.836-.278a.169.169 0 0 1 .033-.003z" style="color-rendering:auto;color:#000;dominant-baseline:auto;fill:#73ba25;font-feature-settings:normal;font-variant-alternates:normal;font-variant-caps:normal;font-variant-ligatures:normal;font-variant-numeric:normal;font-variant-position:normal;image-rendering:auto;isolation:auto;mix-blend-mode:normal;shape-padding:0;shape-rendering:auto;solid-color:#000;text-decoration-color:#000;text-decoration-line:none;text-decoration-style:solid;text-indent:0;text-orientation:mixed;text-transform:none;white-space:normal" transform="translate(-429.3 -139.71) scale(1.1036)"/><path d="M157.69 73.814c2.26 1.4-4.45 2.483-8.112 7.186-.652 1.118-1.181 2.092-1.562 2.907-.215.02-.441.039-.684.057.897-3.486 7.073-7.792 9.045-8.85 1.203-.645 1.384-1.06 1.313-1.3z" style="fill:#85d52d" transform="translate(-429.3 -139.71) scale(1.1036)"/><path d="M156.91 76.321c1.578-.104 3.269.297 5.013 1.494 2.902 3.046-4.24.77-9.904 3.742-1.127.8-2.07 1.512-2.77 2.124-.609.089-1.352.172-2.227.232a1.34 1.34 0 0 1 .065-.406s4.189-6.814 9.823-7.186z" style="fill:#a8e169" transform="translate(-429.3 -139.71) scale(1.1036)"/><path d="M162.18 78.098c2.18 2.62-4.678.584-10.156 3.46-1.128.8-2.07 1.51-2.769 2.123-.287.042-.596.082-.942.12 2.195-2.774 4.278-3.986 6.175-4.498 2.07-.56 3.918-.292 5.447-.337 2.22-.064 2.344-.586 2.245-.868z" style="fill:#85d52d" transform="translate(-429.3 -139.71) scale(1.1036)"/><path d="M156.88 77.188c2.372-.139 4.006.769 4.006.769a.17.17 0 1 1-.166.296s-1.759-.981-4.286-.687c-2.393.278-5.475 1.701-8.393 6.262-.141.013-.277.029-.426.042 2.223-3.555 4.58-5.324 6.68-6.121a8.76 8.76 0 0 1 2.585-.561zM137.01 75.166a.169.169 0 0 0 0 .337s.284.027.77.204c.485.177 1.159.504 1.907 1.104 1.423 1.143 3.113 3.28 4.252 7.272h.35c-1.155-4.105-2.899-6.336-4.391-7.534-.779-.625-1.486-.972-2.002-1.16-.516-.19-.854-.221-.854-.221a.169.169 0 0 0-.032-.002z" style="color-rendering:auto;color:#000;dominant-baseline:auto;fill:#73ba25;font-feature-settings:normal;font-variant-alternates:normal;font-variant-caps:normal;font-variant-ligatures:normal;font-variant-numeric:normal;font-variant-position:normal;image-rendering:auto;isolation:auto;mix-blend-mode:normal;shape-padding:0;shape-rendering:auto;solid-color:#000;text-decoration-color:#000;text-decoration-line:none;text-decoration-style:solid;text-indent:0;text-orientation:mixed;text-transform:none;white-space:normal" transform="translate(-429.3 -139.71) scale(1.1036)"/><path d="M145.31 69.079a2.303 2.303 0 0 0-.908.197c-3.07 4.05-1.342 11.701-.405 14.956.767-.01 1.743-.068 2.944-.19 1.138-4.171 1.882-14.922-1.631-14.963z" style="fill:#a8e169" transform="translate(-429.3 -139.71) scale(1.1036)"/><path d="M147.86 77.232c-.268 1.596-.897 1.515-1.587 2.253-.933.999-.446 1.923-1.477 2.415-1.032.491-1.828-2.411-1.828-2.411l-.012.007c.282 1.901.709 3.585 1.04 4.737.767-.011 1.74-.068 2.938-.19.443-1.617.828-4.211.926-6.811z" style="fill:#85d52d" transform="translate(-429.3 -139.71) scale(1.1036)"/><path d="M145.24 71.471a.22.22 0 0 0-.214.222l-.028 12.503c.142-.007.287-.015.44-.025l.027-12.475a.22.22 0 0 0-.225-.225z" style="color-rendering:auto;color:#000;dominant-baseline:auto;fill:#73ba25;font-feature-settings:normal;font-variant-alternates:normal;font-variant-caps:normal;font-variant-ligatures:normal;font-variant-numeric:normal;font-variant-position:normal;image-rendering:auto;isolation:auto;mix-blend-mode:normal;shape-padding:0;shape-rendering:auto;solid-color:#000;text-decoration-color:#000;text-decoration-line:none;text-decoration-style:solid;text-indent:0;text-orientation:mixed;text-transform:none;white-space:normal" transform="translate(-429.3 -139.71) scale(1.1036)"/><path d="m138.63 83.023 2.653 12.246h8.721l2.913-12.246h-8.164z" style="fill:#85d52d" transform="translate(-429.3 -139.71) scale(1.1036)"/><path d="m142.61 83.023 1.954 12.246h-3.291l-2.667-12.246z" style="fill:#69aa22" transform="translate(-429.3 -139.71) scale(1.1036)"/><path d="M-248.91-60.969s-10.074-.219-10.366 9.636c-.219 8.102-2.044 37.959 7.227 39.71 2.774.73 5.547-2.993 11.388-1.606 6.058 1.168 11.096-1.752 11.169-8.906-.22-4.745-10.293-19.417-11.461-22.921-1.168-3.504-7.957-15.913-7.957-15.913z" style="fill:#ffdc72"/><path d="M-250.12-60.189s-2.761.258-2.039 5.11c.723 4.852 1.281 11.008 1.39 14.11.11 3.103-.291 9.235 3.906 10.148 3.796.766 9.417-.146 10.548.73 1.131.876 4.907 11.067 4.648 11.48-.258.413-1.755 5.368-8.878 4.232-5.678-1.084-8.413 1.497-10.014 1.6-1.396.09-4.636-.135-6.744-5.195 1.135 3.465 2.809 5.888 5.257 6.351 2.774.73 5.548-2.993 11.388-1.606 6.059 1.168 11.096-1.752 11.169-8.906-.22-4.744-10.293-19.417-11.461-22.92-.969-2.906-5.596-11.55-7.22-14.55a11.622 11.622 0 0 0-1.95-.583z" style="fill:#ffca2b"/><path d="M-250.66-60.531c-.182.036-5.657.474-7.519 5.548-.146 1.314 1.424 1.058 2.336.073.913-.986 3.03-4.745 5.804-4.891 1.605-.328.73-1.059-.621-.73z" style="fill:#ffedb3"/><path d="M-248.34-60.576s-8.207 2.839-7.64 10.22c.981 5.884 2.117 19.356 4.44 20.027 2.323.671 14.4 3.562 16.62-1.497 2.22-5.11-12.267-29.16-13.42-28.75z" style="fill:#ffca2b"/><path d="M-220.96-19.894c-.965.02-2.11.242-2.946.45l.038.083c-.529 1.57-3.193 1.332-3.193 1.332l-.077-.128c-.095.676-.159 2.238 1.172 2.847.93.383 2.554-1.15 3.522-1.35.967-.201 3.373-.842 3.321-2.416-.056-.644-.849-.838-1.837-.818z" style="fill:#2f81a2"/><path d="M-223.62-19.392s2.394-.536 3.458-.316c.955.22-.42.477-1.748.67-1.33.194-2.62.588-1.71-.354z" style="fill:#3797be"/><path d="M-219.13-18.962c-5.945 1.048-5.15 2.02-6.006 2.119-.854.099-.665-1.142-.649-1.244-.682.11-1.276.059-1.276.059l-.076-.129c-.096.676-.16 2.239 1.171 2.848.93.383 2.555-1.15 3.522-1.35.943-.196 3.247-.813 3.314-2.303z" style="fill:#1f556b"/><path d="M-219.24-27.047c-.878.018-1.904.211-2.693.401l.267.551s-1.369 1.333-2.938.803a4.65 4.65 0 0 1-.338-.458l-.177.056s-.579 2.297 1.07 3.05c.893.369 2.454-1.104 3.383-1.297.93-.193 3.24-.808 3.191-2.32-.054-.619-.816-.805-1.765-.786z" style="fill:#2f81a2"/><path d="M-219.24-27.047c-.878.018-1.904.211-2.693.401l.212.437c1.036-.12 2.823-.444 2.984-.725.03-.051-.018-.085-.114-.107a5.637 5.637 0 0 0-.39-.006z" style="fill:#3797be"/><path d="M-217.48-26.146c-4.877.58-5.106 1.797-5.589 2.022-.51.237-.766-1.022-.766-1.022l-.025-.026a2.383 2.383 0 0 1-.742-.12 4.653 4.653 0 0 1-.338-.458l-.177.056s-.579 2.296 1.07 3.05c.894.368 2.454-1.104 3.384-1.297.904-.188 3.111-.779 3.183-2.205z" style="fill:#1f556b"/><path d="M-241.6-42.23s-.636 5.94 3.066 6.75c3.412.693 7.076-1.628 8.088 1.898.926 2.89 4.389 7.455 4.798 7.414.409-.04 4.05-2.166 4.05-2.166l-5.85-10.708s-2.627-4.456-14.152-3.188z" style="fill:#9b3d01"/><path d="M-249.54-60.054c-.663.328-1.525.814-2.41 1.485-.305.757-.455 1.865-.213 3.49.723 4.852 1.281 11.008 1.39 14.11.11 3.103-.291 9.235 3.906 10.148 3.721.751 9.194-.11 10.473.681.647-.425 1.159-.974 1.47-1.685 1.857-4.273-7.967-21.783-11.908-27.166a12.303 12.303 0 0 0-2.708-1.063z" style="fill:#fcaf17"/><path d="M-234.84-35.485c.423-.043.87-.095 1.258-.109a5.707 5.707 0 0 1 1.04.044c.324.048.623.136.893.28.27.145.509.346.713.622.203.275.372.625.498 1.066.231.722.621 1.549 1.082 2.383.462.833.994 1.674 1.51 2.423a24.652 24.652 0 0 0 1.413 1.873c.397.468.69.746.792.735.063-.006.476-.247.664-.335-.25-.566-4.683-10.48-8.124-11.546-2.058-.636-2.196.88-1.74 2.564z" style="fill:#712d01"/><path d="M-251.1-57.711s1.11-8.155 8.8-5.342c2.582.929 5.524 10.065 5.833 22.298-3.148.877-12.44.826-12.44.826s-2.993-16.672-2.193-17.782z" style="fill:#35b9ab"/><path d="M-249.27-58.743s-.941 2.14-1.833 4.157c.488 5.128 2.198 14.656 2.198 14.656s9.291.052 12.44-.825a77.01 77.01 0 0 0-.513-7.176h.004c-.03-.247-.062-.486-.093-.729v-.007a61.435 61.435 0 0 0-.686-4.211c-.01.024-.019.044-.027.071-.594 1.936-2.632 2.22-5.29 1.884-1.959-.247-2.305.527-2.353.952a1.369 1.369 0 0 1-.232-.048c-.803-8.322-3.614-8.724-3.614-8.724z" style="fill:#2d9d91"/><path d="M-248.91-39.929s-.803 7.502 3.869 8.524c4.306.876 10.22-1.825 11.497 2.628 1.168 3.65 4.248 9.185 4.764 9.133.517-.051 5.11-2.735 5.11-2.735l-7.38-13.524s-3.316-5.628-17.86-4.026z" style="fill:#9b3d01"/><path d="M-243.3-40.206c1.586.831 6.932 2.76 9.206 3.735 2.316.993 8.634 12.556 9.693 14.516l.733-.424-7.381-13.524s-2.435-4.118-12.251-4.303z" style="fill:#bf4b01"/><path d="M-250.87-52.472c.291 2.34.706 5.041 1.084 7.363.592 1.017 1.318 1.954 1.955 1.86.96-.144 7.664-.887 11.156-1.554a74.964 74.964 0 0 0-.201-2.197 8.972 8.972 0 0 0-1.411.338c-3.504 1.095-9.161 2.262-9.745 1.824-.476-.357-2.195-5.626-2.838-7.634z" style="fill:#258278"/><path d="M-245.38-40.189c-1.098.039-2.27.12-3.533.26 0 0-.803 7.501 3.869 8.523 4.307.876 10.22-1.825 11.497 2.628 1.168 3.65 4.248 9.185 4.765 9.134.219-.022 1.177-.522 2.203-1.087a64.734 64.734 0 0 1-3.597-7.069c-2.787-6.04-8.207-5.832-11.77-5.42-2.866.333-3.352-4.799-3.434-6.969z" style="fill:#712d01"/><path d="m-226.86-56.736-22.045 16.806h32.849l11.68-16.733z" style="fill:#d2d5d8"/><path d="M-223.18-42.935c-.828.083-2.729-.811-2.822.619.09.605.744.465.747.464.17.229.488.42 1.021.446 2.637.31 2.801-1.533 2.655-1.953-.054-.157-1.111.408-1.601.424zM-235.84-45.531l-.949 1.058h15.877l2.226-6.642z" style="fill:#bfc4c8"/><path d="M-225.33-46.115h-10.585l7.08-5.438 10.11.11z" style="fill:#bfc4c8"/><path d="M-223.05-51.079h-4.697l-4.697 4.104h7.304z" style="fill:#99a0a7"/><path d="M-231.56-53.464c-.863.053-1.763.739-1.857.812l-.14 1.365c.19-.075.561-.149 1.136.054.878.31 2.788-.387 3.15-.439.36-.051-.465-.723-1.446-1.548-.245-.2-.54-.263-.843-.244z" style="fill:#ffc098"/><path d="m-237.92-53.378 4.544.383-.31 3.011h-3.577s-.566-3.321-.657-3.394z" style="fill:#35b9ab"/><path d="M-237.89-53.281c.032.105.078.315.135.599 1.331.107 4.27.326 4.24.162-.036-.21.302-.337-.2-.374-.466-.034-3.587-.354-4.175-.387z" style="fill:#47cabc"/><path d="m-237.48-51.182.211 1.198h3.577l.114-1.109c-2.061.436-3.403.089-3.902-.089z" style="fill:#2d9d91"/><path d="M-239.62-69.609s-2.271 7.794-8.362 2.994c-1.084-1.394 2.58-.052 1.497-2.478-.413-1.652 4.49 2.375 6.865-.516z" style="fill:#ffc098"/><path d="m-246.77-65.799-.019.012s-.84 3.504-.292 3.76c.548.255 2.373 1.569 3.76-.84.401-1.168.073-2.226.073-2.226s-.022-.038-.063-.098c-.944.273-2.09.168-3.459-.608z" style="fill:#ffc098"/><path d="M-243.74-75.102c-.67.01-1.451.134-2.358.408-2.167.155-6.348 3.123-2.142 7.691.022.016.045.028.067.043-.197-.815 2.662.047 1.688-2.133-.408-1.634 4.393 2.298 6.795-.417 0-.007.07-.092.07-.1 0 0 .576-5.557-4.12-5.492z" style="fill:#42474c"/><path d="M-249.13-58.743s-2.336-.547-2.007 2.956c.328 3.504.912 11.716 4.014 11.862 2.373.11 10.475-2.117 10.366-3.175s-.51-2.482-.51-2.482-8.286.11-9.089.22c-.146-.183.183-9.126-2.774-9.381z" style="fill:#35b9ab"/><path d="M-233.09-52.878c-.172.11-.294.202-.325.226l-.14 1.365c.19-.075.562-.15 1.137.054.877.31 2.787-.387 3.148-.439.098-.014.104-.075.05-.17-.245.063-.49.153-1.112-.103-.821-.337-2.491.009-2.728-.009-.186-.014-.084-.643-.03-.924z" style="fill:#fe9551"/><path d="m-237.26-49.561 2.826.107.657-2.244s4.873-.073 4.964.474c.091.547-1.752.785-1.861 1.241-.11.456-.11 2.737-1.68 2.756-1.569.018-4.434-.143-4.434-.143z" style="fill:#ffc098"/><path d="m-224.56-57.32 7.373-4.562-1.533 10.439-6.606 5.328z" style="fill:#636a72"/><path d="M-235.91-46.115v.657h10.581l.003-.657z" style="fill:#99a0a7"/><path d="m-217.19-61.882-.011.007-8.118 15.607-.01.153 6.606-5.329z" style="fill:#42474c"/><path d="m-225.33-46.115 6.606-5.329v.358l-6.61 5.628z" style="fill:#737c85"/><path d="M-220.51-37.41v29.035h3.139V-37.41zM-245.77-37.41v29.035h3.139V-37.41z" style="fill:#42474c"/><path d="M-227.32-38.489c-.632.01-1.05.23-.71.52.522.449 5.54 9.31 5.899 9.944l.535-.31-5.541-10.144c-.061-.003-.125-.01-.183-.01z" style="fill:#bf4b01"/><path d="M-248.91-39.929v2.52H-216l-.062-2.52z" style="fill:#acb2b7"/><path d="m-216.06-39.929 11.68-16.733v2.1l-11.618 17.153z" style="fill:#99a0a7"/><path d="m-204.38-54.563-2.683 3.961v21.731h2.683z" style="fill:#42474c"/><path d="M-225.19-21.507c-1.015.577-2.227 1.252-2.984 1.615l1.111 1.863s2.664.237 3.194-1.332c-.247-.592-.906-1.56-1.321-2.146z" style="fill:#ffc098"/><path d="M-225.19-21.507c-1.015.577-2.227 1.252-2.984 1.615l1.111 1.863s.591.05 1.271-.058c-.386-.503-1.21-1.233-1.234-1.512-.031-.338 1.528-1.307 2.038-1.616-.069-.1-.141-.206-.202-.292z" style="fill:#fe9551"/><path d="M-222.5-27.816c-.87.497-2.12 1.2-2.771 1.502.138.268.36.659.668 1.022 1.57.529 2.938-.803 2.938-.803z" style="fill:#ffc098"/><path d="M-222.5-27.816c-.87.497-2.12 1.2-2.771 1.502.138.268.36.659.668 1.022.25.084.492.117.726.12-.509-1.285.878-2.02 1.542-2.305z" style="fill:#fe9551"/><path d="M-222.72-46.918c-2.792.055-3.066 1.131-3.066 1.131-.034.087.033.437.17.864-.374-.033-.79.036-.838.502-.04.84.826 1.613 1.252 1.459.278-.102.45-.062.533-.166.27.3.58.511.927.535 2.737.22 2.847-2.372 3.011-3.139.183-.748-1.04-1.24-1.99-1.186zm-3.037 2.413c.16-.007.322.052.322.052.177.642.422.826.422.954-.62.415-1.07-.352-1.06-.653-.004-.27.155-.345.316-.353z" style="fill:#f2f3f4"/><path d="M-225.42-45.698s2.103.658 4.284-.22c-.077-.232-2.26-1.443-4.284.22z" style="fill:#9b3d01"/><path d="M-302.73-69.842h10.708v8.108h-10.834z" style="fill:#f4f5f6"/><path d="M-301.58-68.705h8.487v5.706h-8.595z" style="fill:#a8e169"/><path d="m-294.89-67.957-1.877 3.154-2.056-2.056-2.84 3.86h8.576v-3.286c-.72-.717-1.803-1.672-1.803-1.672z" style="fill:#69aa22"/><path d="m-302.73-69.842-.126 8.108h10.834v-8.108zm.525.532h9.672v7.193h-9.786z" style="fill:#4a7718"/><path d="M-288.98-79.198h10.708v8.108h-10.834z" style="fill:#f4f5f6"/><path d="M-287.83-78.061h8.487v5.706h-8.595z" style="fill:#a8e169"/><path d="m-288.98-79.198-.126 8.108h10.834v-8.108zm.525.532h9.672v7.193h-9.786z" style="fill:#4a7718"/><circle cx="-285" cy="-76.026" r=".684" style="fill:#5f991f"/><path d="M-279.62-76.816c-.659.035-1.006.97-1.39 1.713-.537 1.035-1.609 1.626-3.937 1.017-1.684-.441-2.591.218-2.967.617l-.02 1.114h8.594v-4.424a.823.823 0 0 0-.28-.037z" style="fill:#73ba25"/><circle cx="-264.08" cy="-80.087" r="5.626" style="fill:#f4f5f6;paint-order:stroke fill markers"/><path d="M-264.08-85.713c.14.062.317.101.54.107.028 0 .054.003.082.004-.085-.044-.125-.066-.173-.089a5.626 5.626 0 0 0-.449-.022zm.622.11c1.04.536 4.545 2.64 3.64 6.384-.438 1.789-2.774 5.147-6.898 3.942.082.095.169.187.255.28a5.626 5.626 0 0 0 2.381.536 5.626 5.626 0 0 0 5.627-5.626 5.626 5.626 0 0 0-4.402-5.487 20.285 20.285 0 0 0-.603-.029z" style="fill:#caeda5"/><path d="M-264.08-86.006c-3.265 0-5.917 2.654-5.917 5.919s2.652 5.919 5.917 5.919c3.265 0 5.919-2.654 5.919-5.92s-2.654-5.918-5.919-5.918zm0 .584a5.33 5.33 0 0 1 5.335 5.335 5.33 5.33 0 0 1-5.335 5.335 5.329 5.329 0 0 1-5.332-5.335 5.329 5.329 0 0 1 5.332-5.335z" style="color-rendering:auto;color:#000;dominant-baseline:auto;fill:#4a7718;font-feature-settings:normal;font-variant-alternates:normal;font-variant-caps:normal;font-variant-ligatures:normal;font-variant-numeric:normal;font-variant-position:normal;image-rendering:auto;isolation:auto;mix-blend-mode:normal;paint-order:stroke fill markers;shape-padding:0;shape-rendering:auto;solid-color:#000;text-decoration-color:#000;text-decoration-line:none;text-decoration-style:solid;text-indent:0;text-orientation:mixed;text-transform:none;white-space:normal"/><path d="M-264.48-84.577v4.447l-2.216-1.662-.351.468 3.151 2.362v-5.615z" style="color-rendering:auto;color:#000;dominant-baseline:auto;fill:#4a7718;font-feature-settings:normal;font-variant-alternates:normal;font-variant-caps:normal;font-variant-ligatures:normal;font-variant-numeric:normal;font-variant-position:normal;image-rendering:auto;isolation:auto;mix-blend-mode:normal;shape-padding:0;shape-rendering:auto;solid-color:#000;text-decoration-color:#000;text-decoration-line:none;text-decoration-style:solid;text-indent:0;text-orientation:mixed;text-transform:none;white-space:normal"/><path d="M-228.1-91.263h18.249v15.512h-18.176z" style="fill:#b9e787"/><path d="M-228.27-91.58v.29l-.024 15.882h18.755V-91.58zm.584.584h8.598v7.145h-8.61zm9.182 0h8.38v7.145h-8.38zm-9.194 7.73h8.61v7.274h-8.621zm9.194 0h8.38v7.274h-8.38z" style="color-rendering:auto;color:#000;dominant-baseline:auto;fill:#4a7718;font-feature-settings:normal;font-variant-alternates:normal;font-variant-caps:normal;font-variant-ligatures:normal;font-variant-numeric:normal;font-variant-position:normal;image-rendering:auto;isolation:auto;mix-blend-mode:normal;shape-padding:0;shape-rendering:auto;solid-color:#000;text-decoration-color:#000;text-decoration-line:none;text-decoration-style:solid;text-indent:0;text-orientation:mixed;text-transform:none;white-space:normal"/><path d="m-246.77-65.799-.019.012-.077.345c.382.32.938.66 1.755 1.563.585.647 1.285.783 1.862.75.274-1.059 0-1.965 0-1.965s-.022-.037-.063-.097c-.944.273-2.09.168-3.459-.608z" style="fill:#fe9551"/><path d="M-239.62-69.609a2.91 2.91 0 0 1-.7.622c-.224.819-.82 2.231-2.397 3.56 2.193-1.087 3.097-4.182 3.097-4.182z" style="fill:#ffe5d4"/><path d="M-248.03-73.945c-.04 0-.077.005-.116.007-1.792 1.174-3.127 3.637-.09 6.935.02.015.044.028.066.042-.196-.814 2.663.048 1.688-2.132-.408-1.634 4.393 2.298 6.795-.417 0-.008.07-.092.07-.1 0 0 .038-.393.01-.964-.67 1.852-3.417 1.515-5.868.68-2.504-.85-1.626.44-2.787.31-1.703-.206.232-4.361.232-4.361z" style="fill:#323232"/><path d="M-251.05-57.421c-.105.412-.146.941-.082 1.634.329 3.504.913 11.716 4.015 11.862 2.373.11 10.475-2.117 10.366-3.176-.034-.336-.1-.699-.172-1.051-1.562 1.063-7.18 2.63-9.755 2.804-3.15.25-4.327-11.616-4.372-12.072z" style="fill:#2d9d91"/><path d="M-246.86-49.618s.279-8.145-2.095-8.454c-1.11-.052.851 2.658.903 4.749.052 2.09.939 4.34 1.192 3.705zM-245.95-49.071s8.322-.31 8.358-.073c.037.237-8.157 1.15-8.358.073zM-249.91-59.559s1.4-2.77 2.46-2.396c.866.42.467.451-.174.785-.977.747-2.697 2.03-2.286 1.611z" style="fill:#47cabc"/><path d="M-228.87-51.307c-.43.312-2 .678-2.525 1.054-.593.426-.232.916-.645 1.742-.384.767-4.358.293-4.947.219l.198.922s2.866.16 4.435.142c1.57-.018 1.57-2.3 1.68-2.755.109-.456 1.952-.694 1.86-1.241-.005-.03-.025-.057-.056-.083z" style="fill:#fe9551"/><path d="M-233.68-51.571s1.35.575 1.26.94c-.092.365-.959 1.45-1.342 1.35-.383-.1-.52.037-.42-.3.1-.338.365-1.963.502-1.99z" style="fill:#fe9551"/><path d="M-233.52-51.646s3.51.058 4.362.316c.219.097-.826.161-1.29.11-.465-.052-2.607.07-3.072-.426zM-232.76-52.935s.803-.625 1.665-.397c.247.073 1.542 1.154 1.437 1.177-.105.023-.707-.05-1.017-.406-.31-.356-.47-.689-.935-.566-.466.124-1.547.543-1.15.192z" style="fill:#ffe5d4"/><path d="M-223.27-46.74c-1.593 0-2.368.952-2.368.952l.213.088h.004c2.021-1.658 4.198-.452 4.28-.218.013.003.042.003.107-.015-.178-.433-1.168-.739-1.907-.793a4.176 4.176 0 0 0-.33-.014z" style="fill:#d2d5d8"/><path d="M-225.58-45.563c-.055-.004-.112.036-.177.12a4.156 4.156 0 0 0 .05.218c.036.125.088.295.154.491-.26-.04-.777-.038-.625.662.077.458.658 1.2 1.162.71-.003-.024-.017-.078-.027-.12-.604.371-1.04-.373-1.031-.67-.004-.269.155-.344.316-.352a.944.944 0 0 1 .322.051c.17.617.401.81.419.939.095.162.196.305.302.418.016-.01.033-.017.045-.031.27.3.58.511.927.535.805.064 1.378-.119 1.797-.422-.13.055-1.606.653-2.457-.606-.724-1.07-.931-1.924-1.177-1.943z" style="fill:#dfe1e3"/><path d="M-241.89-62.254s3.38 3.871 3.458 9.11c-.103 1.084-.593 1.962-1.213.8-.62-1.161.104-1.445-.851-3.329-.955-1.884-4.491-4.904-1.394-6.581z" style="fill:#47cabc"/></g></svg>